# xmcd CD database file
#
# Track frame offsets:
#	150
#	12470
#	25610
#	35477
#	42645
#	56109
#	67032
#	83496
#	90744
#	105369
#
# Disc length: 1544 seconds
#
# Revision: 0
# Processed by: cddbd v1.5.1PL0 Copyright (c) Steve Scherf et al.
# Submitted via: CDex 1.51
#
DISCID=7a06060a
DTITLE=Johnny Paycheck - Take This Job And Shove It!
DYEAR=1900
DGENRE=Country
TTITLE0=Take This Job And Shove It
TTITLE1=Heaven's Almost As Big As Texas
TTITLE2=Sunny Side Of The Mountain
TTITLE3=Old Time Religion
TTITLE4=In The Garden
TTITLE5=Apartment #9
TTITLE6=Danny Boy
TTITLE7=When The Roll Is Called Up Yonder
TTITLE8=A Good Year For The Roses
TTITLE9=Don't Monkey With Another Monkey's Monkey
EXTD=
EXTT0=
EXTT1=
EXTT2=
EXTT3=
EXTT4=
EXTT5=
EXTT6=
EXTT7=
EXTT8=
EXTT9=
PLAYORDER=
